<svg xmlns="http://www.w3.org/2000/svg" data-name="Layer 1" width="792" height="686.447"><path fill="#3f3d56" d="m339 571.14 41 53-50 4.464 9-57.464z"/><path d="M792 383.14a399.803 399.803 0 0 1-2.25 42.47c-.02.22-.05.43-.08.65a393.606 393.606 0 0 1-69.41 184.25c-27.81-20.94-55.4-44.03-84.55-63.44a336.89 336.89 0 0 0-41.38-23.85 224.387 224.387 0 0 0-30.14-11.9c-.35-.11-.71-.22-1.06-.32a184.308 184.308 0 0 0-27.53-6.18 130.533 130.533 0 0 0-14.25-1.24 141.882 141.882 0 0 0-25.76 1.58q-3.945.6-7.86 1.41c-22.1 4.46-43.54 13.45-64.24 24.17h-.01c-20.38 10.56-40.03 22.8-58.86 34.1-19.91 11.93-38.89 22.79-56.84 29.47-2.64.98-5.26 1.88-7.86 2.66-16.72 5.1-32.49 6.03-47.23.13a62.806 62.806 0 0 1-18.13-11.33q-9.465-8.295-19.78-15.78a303.7 303.7 0 0 0-27.3-17.7q-10.515-6.075-21.6-11.42-14.28-6.9-29.35-12.6a413.407 413.407 0 0 0-118.1-25.39A398.841 398.841 0 0 1 4.85 321.03h782.3a397.397 397.397 0 0 1 4.85 62.11Z" fill="#f2f2f2"/><path d="M557.82 33.72a33.271 33.271 0 0 1-8.88 22.67c-.44.47-.9.93-1.36 1.37a502.088 502.088 0 0 0-54.14-36.35c.23-.59.48-1.18.75-1.75A33.219 33.219 0 0 1 509.8 3.74h.01a392.938 392.938 0 0 1 45.22 16.62 33.304 33.304 0 0 1 2.79 13.36Z" fill="#ff6584"/><path d="m584.885 101.63-.03.348q-32.922-2.267-65.836-4.543c-15.854-1.093-32.258-2.333-46.267-9.838-5.319-2.845-10.497-6.644-16.529-6.907-7.481-.334-14.009 4.9-19.141 10.357-30.336 32.313-39.12 81.72-73.154 110.103A1080.818 1080.818 0 0 1 440.57 48.183c5.458-9.032 11.932-18.676 22.064-21.622 9.668-2.814 19.56 1.294 28.46 6.566a148.277 148.277 0 0 1 5.567 3.497q20.571 13.466 40.468 27.963 24.433 17.781 47.756 37.042Z" fill="#f2f2f2"/><path d="M655.868 170.163a519.93 519.93 0 0 0-81.208-90.14q-13.153-11.56-27.08-22.266a504.234 504.234 0 0 0-54.144-36.352q-9.257-5.372-18.73-10.318c-4.908-2.551-10.133-4.885-15.793-4.52a21.011 21.011 0 0 0-10.908 4.194c-6.954 5.078-11.559 13.009-15.35 20.568-3.318 6.628-6.411 13.388-9.567 20.11a575.02 575.02 0 0 1-4.07 8.551q-7.256 14.908-14.854 29.654-9.791 19.002-20.149 37.716-21.758 39.341-45.919 77.263-35.514 55.737-75.99 108.095c-3.311 4.271-4.676 5.264-8.033 9.504-.775.993-2.155-.403-1.387-1.387 27.995-35.383 52.369-68.813 76.945-106.66q27.793-42.807 52.531-87.512 7.943-14.339 15.552-28.856 12.315-23.502 23.777-47.446 3.024-6.303 5.985-12.652c6.272-13.435 15.405-33.414 33.042-33.142 5.186.077 10 2.178 14.544 4.504 4.628 2.38 9.171 4.907 13.707 7.473q2.72 1.535 5.419 3.117 10.687 6.21 21.056 12.94 17.304 11.221 33.693 23.784 7.78 5.966 15.327 12.203a522.174 522.174 0 0 1 84.573 88.62q4.454 5.92 8.722 11.97c.728 1.031-.97 2.008-1.69.985ZM603.45 45.77c-9.27 5.28-16.85 13.08-23.97 20.96q-1.545 1.71-3.07 3.43c-.85.94-2.22-.45-1.39-1.4 7.97-8.91 16.16-18.02 26.55-24.15.63.38 1.26.77 1.88 1.16Z" fill="#e4e4e4"/><path d="m351.696 163.374-26.28-9.612-13.048-4.772a133.427 133.427 0 0 0-12.881-4.437 20.323 20.323 0 0 0-11.66.149 26.873 26.873 0 0 0-9.094 5.637 73.802 73.802 0 0 0-7.46 7.966c-2.84 3.414-5.639 6.864-8.45 10.302q-17.405 21.285-34.582 42.755-17.177 21.47-34.124 43.122-16.988 21.705-33.743 43.592-2.052 2.68-4.101 5.365c-.755.988-2.456.014-1.691-.989q16.878-22.107 33.992-44.032 17.156-21.978 34.548-43.77 17.393-21.791 35.02-43.393 4.392-5.382 8.798-10.752c2.478-3.02 4.927-6.072 7.645-8.883 4.989-5.16 11.221-9.719 18.682-9.842 4.386-.073 8.63 1.319 12.706 2.793 4.394 1.59 8.776 3.209 13.164 4.814l26.464 9.679 6.616 2.42c1.174.429.666 2.322-.521 1.888Z" fill="#e4e4e4"/><path d="M628.94 62.87q-22.5 4.83-44.58 11.37c9.46-5.54 16.86-14.23 26.61-19.24a36.027 36.027 0 0 1 4.08-1.79q7.05 4.665 13.89 9.66Zm-349.218 100.6c2.587-3.149 5.384-6.446 9.253-7.725l3.613.142a409.767 409.767 0 0 1-109.141 124.775l96.275-117.192Z" fill="#f2f2f2"/><path d="M394.555 216.043q0 1.31.085 2.6a39.377 39.377 0 0 0 3.69 14.295c.016.038.035.074.051.11.099.208.2.416.304.621a38.905 38.905 0 0 0 2.096 3.698 39.57 39.57 0 0 0 32.475 18.276l-.392 22.526-5.108-2.69-.912 1.734 5.982 3.15-.732 41.838-.008.559 3.95.879-.008-.562-1.244-67.432a39.491 39.491 0 0 0 27.94-12.156c.249-.257.495-.523.736-.786l.028-.03a39.653 39.653 0 0 0 7.215-11.165c-.039.044-.08.085-.118.129 16.322-41.018 6.826-60.033-18.785-51.052-.137-.069-.277-.135-.414-.203a39.65 39.65 0 0 0-51.367 15.594c-.24.405-.474.819-.698 1.235a39.403 39.403 0 0 0-4.766 18.832Z" fill="#e5e5e5"/><path d="M347.977 181.153a59.527 59.527 0 0 0 5.99 22.642c6.69 13.538 18.432 23.803 33.066 27.632a.143.143 0 0 0 .08.016 50.184 50.184 0 0 0 11.265 1.605h.318c.397.016.794.016 1.192.016.27 0 .54 0 .81-.016a51.9 51.9 0 0 0 51.1-51.895v-.572a35.98 35.98 0 0 0-1.43-9.788c0-.016-.016-.032-.016-.048a33.918 33.918 0 0 0-9.04-14.507c-10.408-10.296-26.886-16.763-41.424-26.996-31.843-22.404-55.232-.111-51.911 51.91Z" fill="#e5e5e5"/><path d="M557.967 310.572c6.69 13.537 18.432 23.802 33.066 27.631a.143.143 0 0 0 .08.016 51.106 51.106 0 0 0 11.217 1.494h.366q1 .024 2.002 0a51.987 51.987 0 0 0 50.687-52.562 53.184 53.184 0 0 0-1.017-9.582c0-.015-.016-.031-.016-.047a33.918 33.918 0 0 0-9.04-14.507 51.91 51.91 0 0 1-40.884 61.603c-.493.095-.985.19-1.478.27-1.43.238-2.86.413-4.306.524a51.842 51.842 0 0 1-40.677-14.84Z" transform="translate(-204 -106.776)" opacity=".2" style="isolation:isolate"/><path fill="#3f3d56" d="m398.129 265.454-7.838-4.126 1.196-2.272 6.694 3.524.504-28.91v-.003l.011-.612v-.11l.26-14.831.364-20.902.28-16.06h.146l.273 14.823v.004l.402 21.868.278 15.089.002.125.08 4.306 1.588 86.359.012.571-5.303 1.487.01-.575 1.041-59.755z"/><path d="M83.99 216.043q0 1.31.084 2.6a39.377 39.377 0 0 0 3.69 14.295c.016.038.035.074.051.11.1.208.2.416.305.621a38.903 38.903 0 0 0 2.095 3.698 39.57 39.57 0 0 0 32.475 18.276l-.392 22.526-5.108-2.69-.912 1.734 5.982 3.15-.731 41.838-.008.559 3.95.879-.009-.562-1.243-67.432a39.491 39.491 0 0 0 27.939-12.156c.249-.257.496-.523.737-.786l.027-.03a39.653 39.653 0 0 0 7.215-11.165c-.038.044-.08.085-.118.129 16.322-41.018 6.826-60.033-18.785-51.052-.137-.069-.277-.135-.413-.203a39.65 39.65 0 0 0-51.367 15.594c-.242.405-.474.819-.699 1.235a39.403 39.403 0 0 0-4.766 18.832Z" fill="#e5e5e5"/><path d="M141.23 180.58v.57a51.9 51.9 0 0 1-51.09 51.9h-.01c-.27.01-.54.01-.81.01-.4 0-.79 0-1.19-.01h-.32a49.9 49.9 0 0 1-11.26-1.61.22.22 0 0 1-.08-.01c-14.64-3.83-26.38-14.1-33.07-27.63-.09-.19-.18-.37-.27-.56a395.856 395.856 0 0 1 47.96-72.78c14.09 9.54 29.67 15.9 39.66 25.78a33.944 33.944 0 0 1 9.04 14.51c0 .01.01.03.01.04a35.884 35.884 0 0 1 1.43 9.79Z" fill="#e5e5e5"/><path d="M247.401 310.572c6.69 13.537 18.432 23.802 33.066 27.631a.143.143 0 0 0 .08.016 51.106 51.106 0 0 0 11.218 1.494h.365q1.001.024 2.002 0a51.987 51.987 0 0 0 50.687-52.562 53.185 53.185 0 0 0-1.017-9.582c0-.015-.015-.031-.015-.047a33.918 33.918 0 0 0-9.041-14.507 51.91 51.91 0 0 1-40.884 61.603 48.973 48.973 0 0 1-5.784.794 51.842 51.842 0 0 1-40.677-14.84Z" transform="translate(-204 -106.776)" opacity=".2" style="isolation:isolate"/><path fill="#3f3d56" d="m87.563 265.454-7.838-4.126 1.196-2.272 6.694 3.524.504-28.91v-.003l.011-.612v-.11l.261-14.831.364-20.902.279-16.06h.146l.274 14.823v.004l.402 21.868.278 15.089.001.125.08 4.306 1.589 86.359.011.571-5.302 1.487.009-.575 1.041-59.755z"/><path d="M708.01 216.043q0 1.31-.084 2.6a39.377 39.377 0 0 1-3.69 14.295c-.016.038-.035.074-.051.11-.1.208-.2.416-.305.621a38.903 38.903 0 0 1-2.095 3.698 39.57 39.57 0 0 1-32.475 18.276l.392 22.526 5.108-2.69.912 1.734-5.982 3.15.731 41.838.008.559-3.95.879.009-.562 1.243-67.432a39.491 39.491 0 0 1-27.939-12.156 38.935 38.935 0 0 1-.737-.786l-.027-.03a39.653 39.653 0 0 1-7.215-11.165c.038.044.08.085.118.129-16.322-41.018-6.826-60.033 18.785-51.052.137-.069.277-.135.413-.203a39.65 39.65 0 0 1 51.367 15.594c.242.405.474.819.699 1.235a39.403 39.403 0 0 1 4.766 18.832Z" fill="#e5e5e5"/><path d="M650.77 180.58v.57a51.9 51.9 0 0 0 51.09 51.9h.01c.27.01.54.01.81.01.4 0 .79 0 1.19-.01h.32a49.9 49.9 0 0 0 11.26-1.61.22.22 0 0 0 .08-.01c14.64-3.83 26.38-14.1 33.07-27.63.09-.19.18-.37.27-.56a395.856 395.856 0 0 0-47.96-72.78c-14.09 9.54-29.67 15.9-39.66 25.78a33.944 33.944 0 0 0-9.04 14.51c0 .01-.01.03-.01.04a35.884 35.884 0 0 0-1.43 9.79Z" fill="#e5e5e5"/><path d="M952.598 310.572c-6.689 13.537-18.431 23.802-33.065 27.631a.143.143 0 0 1-.08.016 51.106 51.106 0 0 1-11.218 1.494h-.365q-1.001.024-2.002 0a51.987 51.987 0 0 1-50.687-52.562 53.185 53.185 0 0 1 1.017-9.582c0-.015.015-.031.015-.047a33.918 33.918 0 0 1 9.041-14.507 51.91 51.91 0 0 0 40.884 61.603 48.973 48.973 0 0 0 5.784.794 51.842 51.842 0 0 0 40.676-14.84Z" transform="translate(-204 -106.776)" opacity=".2" style="isolation:isolate"/><path fill="#3f3d56" d="m704.437 265.454 7.838-4.126-1.196-2.272-6.694 3.524-.504-28.91v-.003l-.011-.612v-.11l-.261-14.831-.364-20.902-.279-16.06h-.146l-.274 14.823v.004l-.402 21.868-.278 15.089-.001.125-.08 4.306-1.589 86.359-.011.571 5.302 1.487-.009-.575-1.041-59.755z"/><path d="M789.75 425.61c-.02.22-.05.43-.08.65-20.55 9.02-48.66 14.58-79.69 14.58-33.89 0-64.33-6.63-85.2-17.16-12.6-6.35-21.71-14.12-25.99-22.7a24.743 24.743 0 0 1-2.76-11.2 22.418 22.418 0 0 1 .19-2.96 24.335 24.335 0 0 1 1.33-5.38 35.344 35.344 0 0 1 8.64-12.76c.85-.83 1.75-1.66 2.69-2.47 7.18-6.16 17.08-11.58 28.99-15.95-15.82 7.9-26.22 18.04-28.57 29.21-.05.2-.08.4-.11.59a22.412 22.412 0 0 0-.4 4.25c0 .14 0 .29.01.43 0 0 .01.01 0 .01.16 8.92 5.43 17.29 14.56 24.56 19.53 15.55 56.72 26.06 99.39 26.06 25.04 0 48.19-3.63 67-9.76Z" fill="#e6e6e6"/><path d="M597.663 369.624c-20.398 10.195-32.817 23.66-32.817 38.43 0 31.815 57.57 57.607 128.587 57.607 30.876 0 59.202-4.88 81.368-13.005-23.543 11.767-57.72 19.177-95.77 19.177-71.016 0-128.587-25.792-128.587-57.607 0-17.983 18.401-34.038 47.219-44.602Z" fill="#e6e6e6"/><path d="M653.262 358.787c-12.736 6.366-20.49 14.773-20.49 23.995 0 19.864 35.945 35.968 80.285 35.968a150.8 150.8 0 0 0 50.804-8.12c-14.7 7.347-36.038 11.973-59.796 11.973-44.34 0-80.285-16.103-80.285-35.968 0-11.228 11.489-21.252 29.482-27.848Z" fill="#e6e6e6"/><path d="M767.81 375.02a7.808 7.808 0 0 0-7.33-4.91h-91.36a5.983 5.983 0 0 0-3.71 10.68c9.31 7.32 26.52 16.04 55.67 16.04 26.19 0 38.93-7.19 45-13.21a7.76 7.76 0 0 0 1.73-8.6Zm-65.7-70.136a34.633 34.633 0 0 1 24.947-6.824c-15.774 3.894-3.326 25.694-17.691 48.302-7.829 12.32 7.396 18.361 21.9 20.015a34.762 34.762 0 0 1-29.157-61.493Z" fill="#3f3d56"/><path fill="#3f3d56" d="M718.277 293.519h3.364v80.074h-3.364z"/><path d="m291.65 16.78-.04.48-40.4-2.79a391.08 391.08 0 0 1 26.21-9.27q7.155 5.73 14.23 11.58Z" fill="#f2f2f2"/><path d="M390.33 109.57a1.431 1.431 0 0 1-2.41.16A703.943 703.943 0 0 0 292.52.8c1.01-.28 2.03-.55 3.04-.8a707.366 707.366 0 0 1 82.82 92.16q6.045 8.025 11.83 16.23a1.081 1.081 0 0 1 .12 1.18Z" fill="#e4e4e4"/><path d="M449.161 240.94A10.58 10.58 0 0 1 462 250.862l79.626 30.746-15.033 12.482-75.509-32.11a10.638 10.638 0 0 1-1.922-21.04Z" fill="#ffb6b6"/><path d="M607.114 333.347c-3.318.772-8.284.412-15.436-3.216-16.466-8.361-48.625-24.466-48.625-24.466l-14.793-7.075-43.943-20.968.438-1.313 4.913-14.767 1.364-4.04 40.88 16.595 25.883 10.497 28.197 4.502 19.476 19.579c.437 6.123 1.055 15.05 1.646 24.672Z" fill="#3f3d56"/><path d="m175.275 299.304 3.587-22.754c14.594-3.577 48.206 3.903 48.206 3.903l57.26-5.723a10.17 10.17 0 1 1 2.393 17.305l-68.866 9.585Z" fill="#ffb6b6"/><path d="m180.27 301.26-30.785-12.14-10.727-13.638a18.702 18.702 0 0 1-.387-19.736 18.657 18.657 0 0 1 24.507-6.95c12.748 6.572 28.07 16.523 28.678 26.617l.006.102.576 1.774-8.814 24.17Z" fill="#3f3d56"/><path d="M382.381 417.744c0 112.292-33.061 237.189-74.605 244.657a21.523 21.523 0 0 1-7.853 0c-41.543-7.468-74.605-132.365-74.605-244.657s33.062-170.735 74.605-174.175a46.628 46.628 0 0 1 7.853 0c41.544 3.44 74.605 61.883 74.605 174.175Z" fill="#6c63ff"/><path d="M307.776 243.569v418.832a21.523 21.523 0 0 1-7.853 0V243.57a46.628 46.628 0 0 1 7.853 0Z" fill="#f2f2f2"/><path d="M570.192 417.744c0 112.292-33.062 237.189-74.605 244.657a21.523 21.523 0 0 1-7.853 0c-41.543-7.468-74.605-132.365-74.605-244.657s33.062-170.735 74.605-174.175a46.628 46.628 0 0 1 7.853 0c41.543 3.44 74.605 61.883 74.605 174.175Z" fill="#6c63ff"/><path d="M495.587 243.569v418.832a21.523 21.523 0 0 1-7.853 0V243.57a46.628 46.628 0 0 1 7.853 0Z" fill="#f2f2f2"/><path fill="#9e616a" d="m606.19 401.095-65.045-1.084-5.42-44.447h70.465v45.531z"/><path fill="#ffb6b6" d="m546.058 673.019-15.016-.001-7.144-57.919 22.163.001-.003 57.919zm95.664-.202-15.016-.106-6.737-57.968 19.529 4.48 2.224 53.594z"/><circle cx="566.19" cy="213.895" r="23.783" fill="#ffb6b6"/><path d="m642.104 621.598-6.643-77.403-13.01-92.148c9.362-51.705-11.924-72.633-11.924-72.633l-3.029.145-68.536 12.93.015-.066c-14.018 38.233-18.663 57.122-17.894 97.837l2.674 131.338 23.057-.902 27.346-172.114 22.555 83.425 23.85 95.4c6.102 4.482 23.54-5.012 21.539-5.809Z" fill="#2f2e41"/><path d="m608.658 384.905-66.891 10.291c-2.316.592-11.578-52.304-12.864-61.746a145.923 145.923 0 0 1-.643-34.86c.206-2.213.463-4.374.746-6.51.643-4.862 1.44-9.622 2.29-14.458.205-1.158.411-2.342.617-3.525.412-2.367.849-4.734 1.26-7.178a12.844 12.844 0 0 1 12.684-10.651h.258a.518.518 0 0 0 .488-.438 7.177 7.177 0 0 1 7.127-6.277h27.014a7.675 7.675 0 0 1 7.692 7.667.484.484 0 0 0 .463.489l9.134.591a5.897 5.897 0 0 1 1.909.599 14.627 14.627 0 0 1 8.207 15.128l-3.299 26.39v.076c.052.36.283 3.422.618 8.182a2556.91 2556.91 0 0 1 1.646 24.672c1.467 23.567 2.882 51.224 1.544 51.558Z" fill="#3f3d56"/><path d="M591.658 192.747c4.431 1.319 8.565-2.387 11.648-5.899l-1.096 1.3c7.255 5.11 11.593 13.432 14.407 21.857 2.815 8.416 4.384 17.231 7.561 25.526 3.177 8.285 8.304 16.302 16.153 20.435 10.515 5.536 23.399 3.019 34.582-.975.149-.056.288-.102.437-.158a71.265 71.265 0 0 1-8.156-27.31 64.797 64.797 0 0 0 19.377 22.73 148.75 148.75 0 0 0 21.01-11.685c4.32-2.889 8.872-6.623 9.373-11.796.511-5.137-3.325-9.828-7.849-12.299s-9.725-3.307-14.667-4.793c-4.932-1.477-9.967-3.901-12.558-8.36-5.973-10.254 4.078-24.717-2.332-34.712-3.158-4.913-9.288-6.883-14.973-8.248a197.958 197.958 0 0 0-26.361-4.45c-7.794-.78-15.847-1.068-23.26 1.44-7.412 2.508-14.137 8.332-15.725 16.005-4.329 2.276-8.908 4.793-11.23 9.112-2.323 4.31-1.031 10.887 3.66 12.28Z" fill="#2f2e41"/><path d="M598.272 191.019c4.243 5.315 6.553 11.062 6.553 14.505 8.813 16.108-3.79 29.945-19.9 38.758a33.003 33.003 0 0 1-21.085 3.677l-.674-2.877-.913 2.591s-10.488 34.64-13.948 36.673c1.313-6.165 2.817-34.71 3.547-40.726 1.012-8.188-2.515-20.38-5.059-27.793a43.76 43.76 0 0 1-2.396-14.202v-.211l-2.477 7.957-9.019-3.847c1.678-9.624 0-20.55 20.116-19.602 10.88-7.483 20.46-8.623 28.33-6.5 1.016-1.57 6.873 1.37 8.565.544Z" fill="#2f2e41"/><path d="M426.915 294.106a10.58 10.58 0 0 0 14.9 6.418l27.337 24.948 3.63-19.2-26.533-20.685a10.638 10.638 0 0 0-19.334 8.52Z" fill="#ffb6b6"/><path d="M522.06 275.037s9.533-21.541 21.572-17.26 5.823 25.183 5.823 25.183l-45.231 68.157s-47.573-30.235-39.64-30.53 7.718-15.437 7.718-15.437l19.402 6.325 1.166-6.133 1.87 1.87 4.826-3.798Z" fill="#3f3d56"/><path fill="#ffb6b6" d="m113.179 637.577 14.046 3.688 20.912-52.424-20.732-5.444-14.226 54.18z"/><path d="m108.836 652.1 43.194 11.343.144-.547a17.383 17.383 0 0 0-12.397-21.227h-.001l-7.077-12.353-15.534 6.415-3.77-.99Zm76.35-4.015 14.522-.001 6.909-56.017-21.434.002.003 56.016z" fill="#ffb6b6"/><path d="m184.674 663.235 44.66-.001v-.565a17.384 17.384 0 0 0-17.383-17.383h-.001l-12.359-5.679-11.019 5.68h-3.898Z" fill="#ffb6b6"/><path d="M148.863 380.024c-3.508 4.385-1.754 19.295-1.754 19.295l3.6 96.215c-14.91 12.278-25.728 92.619-25.728 92.619 1.754 5.262 19.647 6.022 23.155 5.145s48.882-156.938 48.882-156.938-12.864 154.249-12.864 159.51 17.893 0 23.155 0 40.66-197.428 40.66-197.428v-12.279l-4.386-6.139s-91.212-4.385-94.72 0Z" fill="#2f2e41"/><path d="M145.563 384.905s9.205-23.425 11.002-27.288c-4.4-1.427-5.056-23.397-5.056-23.397l-5.784-5.783-.016-.144-3.328-29.122-4.84-19.343a42.465 42.465 0 0 1 12.054-41.154l11.185-1.776 13.594-13.098h21.922l7.517 7.182c14.778 12.113 18.286 6.85 34.95 29.654L226.83 292.07s13.74 65.285 12.996 69.005c0 0 5.741 6.997 6.558 10.808 0 0 2.685 15.19 2.088 15.595-4.695 3.18-29.679-.55-41.164-5.145-12.234-4.892-61.746 2.572-61.746 2.572Z" fill="#3f3d56"/><path d="M282.846 266.09s-33.732-6.914-48.264-3.093l-3.205 22.812 41.146 3.652 70.23-12.766a10.17 10.17 0 1 0-2.751-17.288Z" fill="#ffb6b6"/><path d="m235.61 287.14-27.012.327-12.746-12.38a18.702 18.702 0 0 1-4.7-19.173 18.657 18.657 0 0 1 22.392-12.146c13.877 3.62 19.263 2.784 22.065 12.5l12.864 5.145-2.573 25.728Z" fill="#3f3d56"/><circle cx="187.349" cy="186.651" r="29.831" fill="#ffb8b8"/><path d="M159.49 205.57c-2.211-3.154-3.78-8.207-4.706-11.9a35.821 35.821 0 0 1 4.905-28.714 10.922 10.922 0 0 1 4.258-4.018 4.696 4.696 0 0 1 5.443.91 9.79 9.79 0 0 1 3.11-7.129 17.253 17.253 0 0 1 6.915-3.887 28.732 28.732 0 0 1 28.602 7.072c1.44 1.465.926-5.855 2.525-4.565a7.951 7.951 0 0 0 5.653 2.016c2.042-.217 5.799 7.06 5.82 5.007 2.149 2.153 3.095 11.232 2.423 14.198s-10.67 1.656-13.537 2.672c-1.899.674-3.961.696-5.928 1.135a14.78 14.78 0 0 0-10.953 16.255 19.58 19.58 0 0 0-4.51-4.375 6.627 6.627 0 0 0-6.02-.752 7.446 7.446 0 0 0-3.67 4.623c-.65 1.918-.903 3.954-1.566 5.868-1.946 5.616-2.95 11.511-8.373 12.843-4.28 1.05-7.373-2.95-10.391-7.258Z" fill="#2f2e41"/><path d="m546.06 686.447-44.66-.001v-.565a17.384 17.384 0 0 1 17.383-17.383h.001l12.36-5.679 11.018 5.68h3.899Zm95.661 0-44.659-.001v-.565a17.384 17.384 0 0 1 17.383-17.383h.001l12.359-5.679 11.019 5.68h3.898Z" fill="#ffb6b6"/></svg>